<?xml version="1.0" encoding="utf-8"?>
<!-- Generator: Adobe Illustrator 22.0.0, SVG Export Plug-In . SVG Version: 6.00 Build 0)  -->
<svg version="1.1" id="Layer_1" xmlns="http://www.w3.org/2000/svg" xmlns:xlink="http://www.w3.org/1999/xlink" x="0px" y="0px"
	 viewBox="0 0 96 73" style="enable-background:new 0 0 96 73;" xml:space="preserve">
<style type="text/css">
	.st0{fill:#FFB600;}
</style>
<title>logo</title>
<g id="XMLID_2571_">
	<path id="XMLID_2635_" class="st0" d="M78.6,4.2C78.3,4,78,4,77.7,4.2c-2.4,1.7-3.3,4.2-3.8,5.9c-0.4,1.3-1,2.1-2,2.6
		c-2.5,1.1-6.1-0.7-6.2-0.7c-0.1-0.1-0.2-0.1-0.4-0.2l-0.4-3.2c1.5-0.6,2.4-2,2.2-3.7c-0.2-1.9-2-3.3-3.9-3c-0.2,0-0.5,0.1-0.7,0.2
		c-0.9-1.1-2.3-1.7-3.8-1.6c-1.5,0.2-2.7,1.1-3.3,2.4c-0.2,0-0.5,0-0.7,0c-1.9,0.2-3.3,2-3,3.9c0.2,1.6,1.4,2.8,3,3l0.2,1.4
		c-1.3-0.7-2.4-0.9-3.3-0.5c-0.9,0.4-1.3,1.4-1.3,1.9c-0.4,2.2-0.3,4.1,0.1,5.8c-2.4-0.6-8.9-1.5-13.2,3.2c0,0-1.1,1.2-1.9,3.3
		c-0.1,0.1-0.1,0.2-0.1,0.3c0,0,0,0,0,0c-0.1,0.3-0.2,0.7-0.3,1c-0.5,1.2-1.8,2.9-5,2.9c-0.4,0-0.7,0.3-0.7,0.7s0.3,0.7,0.7,0.7
		c2.2,0,3.6-0.7,4.7-1.5c0,0.7,0.1,1.5,0.2,2.4c0,0-0.1,0.1-0.1,0.1c-0.2,0.2-4.3,5.8-4.1,10.8c0,0.2,0.1,0.4,0.3,0.6
		c0.1,0.1,1.7,1.3,4.2,1.3c1,0,2.1-0.2,3.3-0.7c0.3-0.1,0.5-0.5,0.4-0.9c-0.1-0.5-0.3-1.7-0.2-2.7c0.5,1.2,0.9,2.6,0.6,3.7
		c-0.1,0.3,0.1,0.7,0.4,0.8c0.1,0,1.7,0.8,3.9,0.8c1.1,0,2.4-0.2,3.7-0.8c0.2-0.1,0.4-0.3,0.4-0.5c0.1-0.2,0-0.5-0.1-0.6
		c0,0-2.9-3.7-2.5-7.5c1.2,0.4,3.7,1,6.3,1c0.4,0,0.7,0,1.1,0c-0.7,1.4-1.7,3.8-1.3,5.6c0,0.2,0.1,0.3,0.3,0.4
		c0.1,0.1,1.4,0.9,3.2,0.9c0.9,0,2-0.2,3.2-0.9c0.2-0.1,0.4-0.4,0.4-0.7c0-0.7,0-1.5,0.1-2.1c0.2,0.8,0.3,1.6,0.2,2.2
		c-0.1,0.4,0.1,0.8,0.5,0.9c0.1,0,1.4,0.4,3,0.4c1.5,0,3.2-0.3,4.7-1.5c0.3-0.2,0.4-0.6,0.2-0.9c0-0.1-4.4-7.4-2.9-12.4
		c0.1-0.4,1.9-4.7,7.5-6c0.3-0.1,0.5-0.3,0.6-0.7c0-0.3-0.2-0.6-0.5-0.7c-0.1,0-1-0.4-2.1-0.7c0.5-0.1,1-0.2,1.4-0.2
		c0.5-0.1,1-0.1,1.4-0.2c1.7-0.3,3.1-1.6,4.1-3.5c0.8-1.5,1.2-3.1,1.4-4.2c0.4-3.4,2-6,2-6c0.1-0.1,0.1-0.2,0.1-0.4
		C79.9,5.1,78.9,4.4,78.6,4.2z M56.3,9.1c0-0.4-0.4-0.7-0.8-0.6c-1.1,0.1-2-0.7-2.1-1.8c-0.1-1.1,0.7-2.1,1.8-2.2
		c0.3,0,0.5,0,0.8,0.1c0.2,0.1,0.4,0,0.6-0.1c0.2-0.1,0.3-0.3,0.3-0.4c0.3-1.1,1.2-1.8,2.3-2c1.1-0.1,2.2,0.4,2.7,1.4
		c0.1,0.2,0.3,0.3,0.4,0.4c0.2,0.1,0.4,0,0.6-0.1c0.2-0.1,0.5-0.2,0.8-0.3c1.1-0.1,2.1,0.7,2.2,1.8c0.1,1.1-0.6,2-1.7,2.2
		c-0.4,0.1-0.7,0.4-0.6,0.8l0.4,3.1c-3.3-0.8-6.1,0.4-7.1,1c0,0-0.1-0.1-0.1-0.1L56.3,9.1z M37.2,42.4c-2.5,0.9-4.4,0-5.1-0.4
		c0-3.3,2.1-6.9,3.2-8.6c0.4,1.3,1,2.6,1.9,4c0,0,0,0,0,0c0.1,0.2,0.3,0.5,0.5,0.8C36.9,39.6,37.1,41.4,37.2,42.4z M56.8,41.8
		c-1.9,0.9-3.6,0.3-4.2,0c-0.2-1.7,1.1-4.3,1.7-5.3c0.7-0.2,1.4-0.4,2.1-0.7c0.4,0.6,0.7,1.3,1,2C56.8,38.8,56.8,40.7,56.8,41.8z
		 M76.3,12.2c-0.2,1.5-1.4,5.8-4.3,6.4c-0.4,0.1-0.9,0.2-1.4,0.2c-1.3,0.2-2.9,0.4-4.4,1.2c0,0,0,0,0,0c0,0,0,0-0.1,0c0,0,0,0-0.1,0
		c0,0,0,0-0.1,0c0,0,0,0,0,0.1c0,0,0,0,0,0.1c0,0,0,0,0,0.1c0,0,0,0,0,0.1c0,0,0,0,0,0.1c0,0,0,0,0,0.1c0,0,0,0,0,0.1c0,0,0,0,0,0
		c0,0,0,0,0,0c0,0,0,0.1,0,0.1c0,0,0,0,0,0.1c0,0,0,0,0,0.1c0,0,0,0,0,0.1c0,0,0,0,0,0c0,0,0,0,0,0c0,0,0,0,0,0.1c0,0,0,0,0,0.1
		c0,0,0,0,0,0c0,0,0,0,0.1,0c0,0,0,0,0.1,0c0,0,0,0,0.1,0c0,0,0,0,0.1,0c0,0,0,0,0.1,0c0,0,0,0,0.1,0c0,0,0.1,0,0.1,0c0,0,0,0,0,0
		c0.6,0,1.5,0.2,2.4,0.5c-4.8,2-6.4,6.1-6.4,6.3c0,0,0,0,0,0c-1.5,4.8,1.6,11.1,2.7,13c-1.8,1.1-4.1,0.8-5.2,0.6
		c0.2-3.3-3.2-8.3-3.7-8.9c-0.2-0.3-0.7-0.4-1-0.2c-0.3,0.2-0.4,0.7-0.2,1c0.1,0.2,0.3,0.4,0.5,0.7c-3.5,1.6-8.4,0.4-10.2-0.2
		c0.1-0.2,0.2-0.4,0.3-0.6c0.2-0.4,0-0.8-0.3-1c-0.4-0.2-0.8,0-1,0.3c-2,4.1,0.4,8.5,1.5,10.3c-2.2,0.7-4.2,0.2-5.1-0.1
		c0.3-3-2.1-6.4-2.4-6.7c-2.5-4-2.7-7.3-2.1-9.7c0.3-0.7,0.4-1.3,0.4-1.4c0.7-1.7,1.5-2.7,1.6-2.8c4.5-5,12.3-2.7,12.6-2.6
		c1.2,3.5,3.4,5.4,3.5,5.5c0.1,0.1,0.3,0.2,0.5,0.2c0,0,0,0,0,0c1.9-0.1,3.4-2.3,3.6-2.6c0.2-0.3,0.1-0.8-0.2-1
		c-0.3-0.2-0.8-0.1-1,0.2c-0.3,0.4-1.2,1.6-2.1,1.9c-0.9-1-4.5-5-3.4-11.4c0,0,0,0,0-0.1c0,0,0.1-0.5,0.5-0.7c0.3-0.1,1.1-0.2,2.9,1
		l0,0.1l0.1,0c0.3,0.2,0.6,0.4,0.9,0.6c0.3,0.2,0.6,0.2,0.9,0c0,0,3.8-2.6,8-0.5c0.2,0.1,4.3,2.1,7.4,0.7c1.4-0.6,2.4-1.8,2.8-3.5
		c0.4-1.4,1.1-3.4,2.8-4.8c0.1,0.1,0.2,0.2,0.2,0.2C77.9,6.7,76.7,9.1,76.3,12.2z"/>
	</g>
</g>
</svg>
